<?xml version="1.0" encoding="UTF-8"?>
<svg version="1.1" xmlns="http://www.w3.org/2000/svg" width="512" height="512">
<path d="M0 0 C168.96 0 337.92 0 512 0 C512 168.96 512 337.92 512 512 C343.04 512 174.08 512 0 512 C0 343.04 0 174.08 0 0 Z " fill="#000000" transform="translate(0,0)"/>
<path d="M0 0 C2.48671697 2.1754141 4.81985989 4.42355018 7.12109375 6.79296875 C7.6934375 7.3446875 8.26578125 7.89640625 8.85546875 8.46484375 C21.20429145 21.32289625 22.49410133 39.72523266 22.2734375 56.54296875 C22.15149727 61.17871305 21.63297443 65.39477041 20.12109375 69.79296875 C19.71890625 70.99953125 19.71890625 70.99953125 19.30859375 72.23046875 C17.06410316 78.36540971 14.01195368 83.56279272 10.12109375 88.79296875 C9.44433594 89.71916016 9.44433594 89.71916016 8.75390625 90.6640625 C0.80664108 100.74406833 -12.49480283 107.82078393 -24.87890625 110.79296875 C-28.44140625 110.98046875 -28.44140625 110.98046875 -30.87890625 110.79296875 C-30.87890625 111.45296875 -30.87890625 112.11296875 -30.87890625 112.79296875 C-30.3271875 113.02628906 -29.77546875 113.25960937 -29.20703125 113.5 C-26.26635358 115.13316159 -24.08813374 117.18636082 -21.62890625 119.48046875 C-18.48826622 122.39355622 -15.33977514 125.27863346 -12.06640625 128.04296875 C9.87327727 147.27961118 25.4387477 169.08470083 29.12109375 198.79296875 C29.37888676 203.11042395 29.4088648 207.40632411 29.37109375 211.73046875 C29.36287598 212.87491455 29.3546582 214.01936035 29.34619141 215.19848633 C28.98815382 242.18412571 17.75402001 265.38741743 -1.39355469 284.28808594 C-19.41304915 301.42118455 -42.16301147 311.48569761 -65.87890625 317.79296875 C-66.64154785 318.00614746 -67.40418945 318.21932617 -68.18994141 318.43896484 C-95.49906149 325.94644259 -129.15808997 323.95941583 -154.19140625 310.04296875 C-160.47479746 306.36392945 -165.76672643 301.9572251 -170.87890625 296.79296875 C-171.64847656 296.05691406 -172.41804688 295.32085937 -173.2109375 294.5625 C-188.67459802 278.83540404 -193.15299019 256.92476917 -193.12548828 235.57739258 C-192.79412615 210.70934531 -181.12437417 187.43216881 -163.87890625 169.79296875 C-154.51324783 161.62321219 -145.51340199 157.00839796 -132.94921875 157.39453125 C-128.47764531 157.97481177 -125.64404847 159.33114499 -121.87890625 161.79296875 C-117.34366076 170.86345974 -121.92138749 187.28628667 -124.7109375 196.55859375 C-125.19112218 197.94947351 -125.69198687 199.33375978 -126.23046875 200.703125 C-128.55395758 208.19147754 -128.13262156 216.29122827 -128.19140625 224.04296875 C-128.22041016 225.30238281 -128.24941406 226.56179688 -128.27929688 227.859375 C-128.34689824 237.87477727 -126.69962643 247.17756503 -120.4375 255.29296875 C-111.81902767 263.58743836 -101.56964872 263.13650972 -90.421875 263.00390625 C-77.97584749 262.66634448 -65.70309634 258.64435073 -56.44140625 250.04296875 C-52.54124924 245.81036592 -50.02699772 241.10491587 -47.87890625 235.79296875 C-47.5128125 234.92027344 -47.14671875 234.04757812 -46.76953125 233.1484375 C-42.98553347 218.8920599 -45.35868615 202.60436493 -52.44140625 189.85546875 C-62.61864632 174.15922785 -75.64731744 160.84414851 -89.87890625 148.79296875 C-109.76288914 131.28606943 -130.78636203 108.71761052 -132.87890625 80.79296875 C-134.07680077 55.21887142 -131.25664371 32.93536461 -113.49609375 13.13671875 C-85.63483571 -15.85995106 -33.45211961 -25.64511205 0 0 Z " fill="#FDFDFD" transform="translate(337.87890625,102.20703125)"/>
<path d="M0 0 C3.69067578 2.67345772 5.78701217 4.68077634 7.0625 9.1875 C8.32078849 20.40268005 5.18881335 31.28326352 0.0625 41.1875 C-0.40800781 42.11175781 -0.87851562 43.03601563 -1.36328125 43.98828125 C-5.81612801 52.18194438 -11.45992668 58.58107802 -17.9375 65.1875 C-35.0900869 51.01797169 -50.4970437 33.31202228 -55.9375 11.1875 C-55.56699408 7.20456137 -54.61783942 5.31475448 -51.625 2.6875 C-37.15649045 -8.93307797 -15.76819019 -9.56637016 0 0 Z " fill="#020202" transform="translate(311.9375,137.8125)"/>
</svg>
