<?xml version="1.0" encoding="UTF-8"?>
<svg version="1.1" xmlns="http://www.w3.org/2000/svg" width="512" height="512">
<path d="M0 0 C1.01201477 0.00054382 2.02402954 0.00108765 3.06671143 0.00164795 C19.59887291 0.04238923 35.523992 0.95817716 51.75 4.375 C52.78125 4.58930664 53.8125 4.80361328 54.875 5.02441406 C101.10680927 14.94980561 143.72188765 37.60106665 177.75 70.375 C178.7390332 71.32318604 178.7390332 71.32318604 179.74804688 72.29052734 C189.23630305 81.43497479 197.9762044 90.73234009 205.75 101.375 C206.60806152 102.52605017 207.46613451 103.67709177 208.32421875 104.828125 C214.36236829 113.01930614 219.72095521 121.53304105 224.75 130.375 C225.11448242 131.00680176 225.47896484 131.63860352 225.85449219 132.28955078 C240.78473018 158.37464001 250.26385054 187.71085114 254.75 217.375 C254.92660156 218.49745117 255.10320312 219.61990234 255.28515625 220.77636719 C256.9420586 232.38947743 257.14873513 243.90679945 257.125 255.625 C257.12418427 257.14302216 257.12418427 257.14302216 257.12335205 258.69171143 C257.08261077 275.22387291 256.16682284 291.148992 252.75 307.375 C252.42854004 308.921875 252.42854004 308.921875 252.10058594 310.5 C242.17519439 356.73180927 219.52393335 399.34688765 186.75 433.375 C186.11787598 434.03435547 185.48575195 434.69371094 184.83447266 435.37304688 C175.69002521 444.86130305 166.39265991 453.6012044 155.75 461.375 C154.59894983 462.23306152 153.44790823 463.09113451 152.296875 463.94921875 C144.10569386 469.98736829 135.59195895 475.34595521 126.75 480.375 C126.11819824 480.73948242 125.48639648 481.10396484 124.83544922 481.47949219 C98.75035999 496.40973018 69.41414886 505.88885054 39.75 510.375 C38.62754883 510.55160156 37.50509766 510.72820312 36.34863281 510.91015625 C24.73552257 512.5670586 13.21820055 512.77373513 1.5 512.75 C-0.01802216 512.74918427 -0.01802216 512.74918427 -1.56671143 512.74835205 C-18.09887291 512.70761077 -34.023992 511.79182284 -50.25 508.375 C-51.796875 508.05354004 -51.796875 508.05354004 -53.375 507.72558594 C-99.60680927 497.80019439 -142.22188765 475.14893335 -176.25 442.375 C-176.90935547 441.74287598 -177.56871094 441.11075195 -178.24804688 440.45947266 C-187.73630305 431.31502521 -196.4762044 422.01765991 -204.25 411.375 C-205.10806152 410.22394983 -205.96613451 409.07290823 -206.82421875 407.921875 C-212.86236829 399.73069386 -218.22095521 391.21695895 -223.25 382.375 C-223.61448242 381.74319824 -223.97896484 381.11139648 -224.35449219 380.46044922 C-239.28473018 354.37535999 -248.76385054 325.03914886 -253.25 295.375 C-253.51490234 293.69132324 -253.51490234 293.69132324 -253.78515625 291.97363281 C-255.4420586 280.36052257 -255.64873513 268.84320055 -255.625 257.125 C-255.62445618 256.11298523 -255.62391235 255.10097046 -255.62335205 254.05828857 C-255.58261077 237.52612709 -254.66682284 221.601008 -251.25 205.375 C-251.03569336 204.34375 -250.82138672 203.3125 -250.60058594 202.25 C-240.67519439 156.01819073 -218.02393335 113.40311235 -185.25 79.375 C-184.61787598 78.71564453 -183.98575195 78.05628906 -183.33447266 77.37695312 C-174.19002521 67.88869695 -164.89265991 59.1487956 -154.25 51.375 C-153.09894983 50.51693848 -151.94790823 49.65886549 -150.796875 48.80078125 C-142.60569386 42.76263171 -134.09195895 37.40404479 -125.25 32.375 C-124.61819824 32.01051758 -123.98639648 31.64603516 -123.33544922 31.27050781 C-97.25035999 16.34026982 -67.91414886 6.86114946 -38.25 2.375 C-37.12754883 2.19839844 -36.00509766 2.02179687 -34.84863281 1.83984375 C-23.23552257 0.1829414 -11.71820055 -0.02373513 0 0 Z " fill="#000000" transform="translate(255.25,-0.375)"/>
<path d="M0 0 C2.48671697 2.1754141 4.81985989 4.42355018 7.12109375 6.79296875 C7.6934375 7.3446875 8.26578125 7.89640625 8.85546875 8.46484375 C21.20429145 21.32289625 22.49410133 39.72523266 22.2734375 56.54296875 C22.15149727 61.17871305 21.63297443 65.39477041 20.12109375 69.79296875 C19.71890625 70.99953125 19.71890625 70.99953125 19.30859375 72.23046875 C17.06410316 78.36540971 14.01195368 83.56279272 10.12109375 88.79296875 C9.44433594 89.71916016 9.44433594 89.71916016 8.75390625 90.6640625 C0.80664108 100.74406833 -12.49480283 107.82078393 -24.87890625 110.79296875 C-28.44140625 110.98046875 -28.44140625 110.98046875 -30.87890625 110.79296875 C-30.87890625 111.45296875 -30.87890625 112.11296875 -30.87890625 112.79296875 C-30.3271875 113.02628906 -29.77546875 113.25960937 -29.20703125 113.5 C-26.26635358 115.13316159 -24.08813374 117.18636082 -21.62890625 119.48046875 C-18.48826622 122.39355622 -15.33977514 125.27863346 -12.06640625 128.04296875 C9.87327727 147.27961118 25.4387477 169.08470083 29.12109375 198.79296875 C29.37888676 203.11042395 29.4088648 207.40632411 29.37109375 211.73046875 C29.36287598 212.87491455 29.3546582 214.01936035 29.34619141 215.19848633 C28.98815382 242.18412571 17.75402001 265.38741743 -1.39355469 284.28808594 C-19.41304915 301.42118455 -42.16301147 311.48569761 -65.87890625 317.79296875 C-66.64154785 318.00614746 -67.40418945 318.21932617 -68.18994141 318.43896484 C-95.49906149 325.94644259 -129.15808997 323.95941583 -154.19140625 310.04296875 C-160.47479746 306.36392945 -165.76672643 301.9572251 -170.87890625 296.79296875 C-171.64847656 296.05691406 -172.41804688 295.32085937 -173.2109375 294.5625 C-188.67459802 278.83540404 -193.15299019 256.92476917 -193.12548828 235.57739258 C-192.79412615 210.70934531 -181.12437417 187.43216881 -163.87890625 169.79296875 C-154.51324783 161.62321219 -145.51340199 157.00839796 -132.94921875 157.39453125 C-128.47764531 157.97481177 -125.64404847 159.33114499 -121.87890625 161.79296875 C-117.34366076 170.86345974 -121.92138749 187.28628667 -124.7109375 196.55859375 C-125.19112218 197.94947351 -125.69198687 199.33375978 -126.23046875 200.703125 C-128.55395758 208.19147754 -128.13262156 216.29122827 -128.19140625 224.04296875 C-128.22041016 225.30238281 -128.24941406 226.56179688 -128.27929688 227.859375 C-128.34689824 237.87477727 -126.69962643 247.17756503 -120.4375 255.29296875 C-111.81902767 263.58743836 -101.56964872 263.13650972 -90.421875 263.00390625 C-77.97584749 262.66634448 -65.70309634 258.64435073 -56.44140625 250.04296875 C-52.54124924 245.81036592 -50.02699772 241.10491587 -47.87890625 235.79296875 C-47.5128125 234.92027344 -47.14671875 234.04757812 -46.76953125 233.1484375 C-42.98553347 218.8920599 -45.35868615 202.60436493 -52.44140625 189.85546875 C-62.61864632 174.15922785 -75.64731744 160.84414851 -89.87890625 148.79296875 C-109.76288914 131.28606943 -130.78636203 108.71761052 -132.87890625 80.79296875 C-134.07680077 55.21887142 -131.25664371 32.93536461 -113.49609375 13.13671875 C-85.63483571 -15.85995106 -33.45211961 -25.64511205 0 0 Z " fill="#FDFDFD" transform="translate(337.87890625,102.20703125)"/>
<path d="M0 0 C3.69067578 2.67345772 5.78701217 4.68077634 7.0625 9.1875 C8.32078849 20.40268005 5.18881335 31.28326352 0.0625 41.1875 C-0.40800781 42.11175781 -0.87851562 43.03601563 -1.36328125 43.98828125 C-5.81612801 52.18194438 -11.45992668 58.58107802 -17.9375 65.1875 C-35.0900869 51.01797169 -50.4970437 33.31202228 -55.9375 11.1875 C-55.56699408 7.20456137 -54.61783942 5.31475448 -51.625 2.6875 C-37.15649045 -8.93307797 -15.76819019 -9.56637016 0 0 Z " fill="#020202" transform="translate(311.9375,137.8125)"/>
</svg>
